{"title":"The Marriage Chronicles 2012 DVDRIP x264 AC3 - HOPE","uid":7037200,"size":1516785977,"categoryP":"video","categoryS":"movies","magnet":"?xt=urn:btih:ed6358b745b3812c04b7f126d9d7a28457305aac&amp;dn=The+Marriage+Chronicles+2012+DVDRIP+x264+AC3+-+HOPE&amp;tr=udp%3A%2F%2Ftracker.openbittorrent.com%3A80&amp;tr=udp%3A%2F%2Fopen.demonii.com%3A1337&amp;tr=udp%3A%2F%2Ftracker.coppersurfer.tk%3A6969&amp;tr=udp%3A%2F%2Fexodus.desync.com%3A6969","seeders":4,"leechers":0,"uploader":"Hackulus","files":-1,"time":1329424986,"description":"[img]http://www.aedes.us/e/iW1Hu.gif[/img]\n\nPlot:\nThree married couples trying to spice up their marriages go on a retreat run by a sexy psychologist and her handsome husband at a tranquil Malibu estate. Encouraged to share their innermost feelings, the fun begins when secrets are revealed and hearts are challenged. How far will each couple go to save their marriage?\n\nIMDB:\nwww.imdb.com/title/tt2137376/\n\nInformation:\nFormat                           : Matroska\nFormat version                   : Version 2\nFile size                        : 1.40 GiB\nDuration                         : 1h 49mn\nOverall bit rate                 : 1 835 Kbps\nEncoded date                     : UTC 2012-02-16 16:40:10\nWriting application              : mkvmerge v5.2.1 ('A Far Off Place') built on Jan  2 2012 23:21:10\nWriting library                  : libebml v1.2.3 + libmatroska v1.3.0\n\nVideo\nID                               : 1\nFormat                           : AVC\nFormat/Info                      : Advanced Video Codec\nFormat profile                   : &lt;a class=&quot;__cf_email__&quot; href=&quot;/cdn-cgi/l/email-protection&quot; data-cfemail=&quot;155d7c727d5559203b24&quot;&gt;[email&amp;#160;protected]&lt;/a&gt;&lt;script cf-hash='f9e31' type=&quot;text/javascript&quot;&gt;\n/* &lt;![CDATA[ */!function(){try{var t=&quot;currentScript&quot;in document?document.currentScript:function(){for(var t=document.getElementsByTagName(&quot;script&quot;),e=t.length;e--;)if(t[e].getAttribute(&quot;cf-hash&quot;))return t[e]}();if(t&amp;&amp;t.previousSibling){var e,r,n,i,c=t.previousSibling,a=c.getAttribute(&quot;data-cfemail&quot;);if(a){for(e=&quot;&quot;,r=parseInt(a.substr(0,2),16),n=2;a.length-n;n+=2)i=parseInt(a.substr(n,2),16)^r,e+=String.fromCharCode(i);e=document.createTextNode(e),c.parentNode.replaceChild(e,c)}}}catch(u){}}();/* ]]&gt; */&lt;/script&gt;\nFormat settings, CABAC           : Yes\nFormat settings, ReFrames        : 6 frames\nCodec ID                         : V_MPEG4/ISO/AVC\nDuration                         : 1h 49mn\nBit rate                         : 1 610 Kbps\nWidth                            : 720 pixels\nHeight                           : 384 pixels\nDisplay aspect ratio             : 1.875\nFrame rate                       : 29.970 fps\nColor space                      : YUV\nChroma subsampling               : 4:2:0\nBit depth                        : 8 bits\nScan type                        : Progressive\nBits/(Pixel*Frame)               : 0.194\nStream size                      : 1.20 GiB (86%)\nWriting library                  : x264 core 120 r2164 da19765\n\nAudio\nID                               : 2\nFormat                           : AC-3\nFormat/Info                      : Audio Coding 3\nMode extension                   : CM (complete main)\nCodec ID                         : A_AC3\nDuration                         : 1h 49mn\nBit rate mode                    : Constant\nBit rate                         : 224 Kbps\nChannel(s)                       : 6 channels\nChannel positions                : Front: L C R, Side: L R, LFE\nSampling rate                    : 48.0 KHz\nBit depth                        : 16 bits\nCompression mode                 : Lossy\nStream size                      : 175 MiB (12%)\n\n[img]http://www.aedes.us/e/Cfu3N.jpg[/img]\n[img]http://www.aedes.us/e/z82nW.jpg[/img]\n[img]http://www.aedes.us/e/VvRcr.jpg[/img]\n[img]http://www.aedes.us/e/VkfqB.jpg[/img]\n[img]http://www.aedes.us/e/XTiG5.jpg[/img]\n[img]http://www.aedes.us/e/Knckl.jpg[/img]\n[img]http://www.aedes.us/e/AmB4.jpg[/img]","torrent":{"xt":"urn:btih:ed6358b745b3812c04b7f126d9d7a28457305aac","amp;dn":"The+Marriage+Chronicles+2012+DVDRIP+x264+AC3+-+HOPE","amp;tr":["udp%3A%2F%2Ftracker.openbittorrent.com%3A80","udp%3A%2F%2Fopen.demonii.com%3A1337","udp%3A%2F%2Ftracker.coppersurfer.tk%3A6969","udp%3A%2F%2Fexodus.desync.com%3A6969"],"infoHash":"ed6358b745b3812c04b7f126d9d7a28457305aac","infoHashBuffer":{"type":"Buffer","data":[237,99,88,183,69,179,129,44,4,183,241,38,217,215,162,132,87,48,90,172]},"announce":[],"urlList":[]}}